<svg width="25" height="24" viewBox="0 0 25 24" fill="none" xmlns="http://www.w3.org/2000/svg">
<g clip-path="url(#clip0_113_217)">
<path d="M4.10001 19V10C4.10001 9.68333 4.17084 9.38333 4.31251 9.1C4.45417 8.81667 4.65001 8.58333 4.90001 8.4L10.9 3.9C11.25 3.63333 11.65 3.5 12.1 3.5C12.55 3.5 12.95 3.63333 13.3 3.9L19.3 8.4C19.55 8.58333 19.7458 8.81667 19.8875 9.1C20.0292 9.38333 20.1 9.68333 20.1 10V19C20.1 19.55 19.9042 20.0208 19.5125 20.4125C19.1208 20.8042 18.65 21 18.1 21H15.1C14.8167 21 14.5792 20.9042 14.3875 20.7125C14.1958 20.5208 14.1 20.2833 14.1 20V15C14.1 14.7167 14.0042 14.4792 13.8125 14.2875C13.6208 14.0958 13.3833 14 13.1 14H11.1C10.8167 14 10.5792 14.0958 10.3875 14.2875C10.1958 14.4792 10.1 14.7167 10.1 15V20C10.1 20.2833 10.0042 20.5208 9.81251 20.7125C9.62084 20.9042 9.38334 21 9.10001 21H6.10001C5.55001 21 5.07917 20.8042 4.68751 20.4125C4.29584 20.0208 4.10001 19.55 4.10001 19Z" fill="#AAAAAA"/>
</g>
<defs>
<clipPath id="clip0_113_217">
<rect width="24" height="24" fill="white" transform="translate(0.100006)"/>
</clipPath>
</defs>
</svg>
