<svg width="25" height="24" viewBox="0 0 25 24" fill="none" xmlns="http://www.w3.org/2000/svg">
<g clip-path="url(#clip0_113_90)">
<path d="M6.74999 17.1C7.59999 16.45 8.54999 15.9375 9.59999 15.5625C10.65 15.1875 11.75 15 12.9 15C14.05 15 15.15 15.1875 16.2 15.5625C17.25 15.9375 18.2 16.45 19.05 17.1C19.6333 16.4167 20.0875 15.6417 20.4125 14.775C20.7375 13.9083 20.9 12.9833 20.9 12C20.9 9.78333 20.1208 7.89583 18.5625 6.3375C17.0042 4.77917 15.1167 4 12.9 4C10.6833 4 8.79583 4.77917 7.23749 6.3375C5.67916 7.89583 4.89999 9.78333 4.89999 12C4.89999 12.9833 5.06249 13.9083 5.38749 14.775C5.71249 15.6417 6.16666 16.4167 6.74999 17.1ZM12.9 13C11.9167 13 11.0875 12.6625 10.4125 11.9875C9.73749 11.3125 9.39999 10.4833 9.39999 9.5C9.39999 8.51667 9.73749 7.6875 10.4125 7.0125C11.0875 6.3375 11.9167 6 12.9 6C13.8833 6 14.7125 6.3375 15.3875 7.0125C16.0625 7.6875 16.4 8.51667 16.4 9.5C16.4 10.4833 16.0625 11.3125 15.3875 11.9875C14.7125 12.6625 13.8833 13 12.9 13ZM12.9 22C11.5167 22 10.2167 21.7375 8.99999 21.2125C7.78333 20.6875 6.72499 19.975 5.82499 19.075C4.92499 18.175 4.21249 17.1167 3.68749 15.9C3.16249 14.6833 2.89999 13.3833 2.89999 12C2.89999 10.6167 3.16249 9.31667 3.68749 8.1C4.21249 6.88333 4.92499 5.825 5.82499 4.925C6.72499 4.025 7.78333 3.3125 8.99999 2.7875C10.2167 2.2625 11.5167 2 12.9 2C14.2833 2 15.5833 2.2625 16.8 2.7875C18.0167 3.3125 19.075 4.025 19.975 4.925C20.875 5.825 21.5875 6.88333 22.1125 8.1C22.6375 9.31667 22.9 10.6167 22.9 12C22.9 13.3833 22.6375 14.6833 22.1125 15.9C21.5875 17.1167 20.875 18.175 19.975 19.075C19.075 19.975 18.0167 20.6875 16.8 21.2125C15.5833 21.7375 14.2833 22 12.9 22Z" fill="#AAAAAA"/>
</g>
<defs>
<clipPath id="clip0_113_90">
<rect width="24" height="24" fill="white" transform="translate(0.899994)"/>
</clipPath>
</defs>
</svg>
