<svg width="25" height="24" viewBox="0 0 25 24" fill="none" xmlns="http://www.w3.org/2000/svg">
<g clip-path="url(#clip0_113_80)">
<path d="M7.5 14V21C7.5 21.2833 7.40417 21.5208 7.2125 21.7125C7.02083 21.9042 6.78333 22 6.5 22C6.21667 22 5.97917 21.9042 5.7875 21.7125C5.59583 21.5208 5.5 21.2833 5.5 21V3C5.5 2.71667 5.59583 2.47917 5.7875 2.2875C5.97917 2.09583 6.21667 2 6.5 2C6.78333 2 7.02083 2.09583 7.2125 2.2875C7.40417 2.47917 7.5 2.71667 7.5 3V4H20.025C20.375 4 20.65 4.14583 20.85 4.4375C21.05 4.72917 21.0833 5.04167 20.95 5.375L19.5 9L20.95 12.625C21.0833 12.9583 21.05 13.2708 20.85 13.5625C20.65 13.8542 20.375 14 20.025 14H7.5ZM13 11C13.55 11 14.0208 10.8042 14.4125 10.4125C14.8042 10.0208 15 9.55 15 9C15 8.45 14.8042 7.97917 14.4125 7.5875C14.0208 7.19583 13.55 7 13 7C12.45 7 11.9792 7.19583 11.5875 7.5875C11.1958 7.97917 11 8.45 11 9C11 9.55 11.1958 10.0208 11.5875 10.4125C11.9792 10.8042 12.45 11 13 11Z" fill="#AAAAAA"/>
</g>
<defs>
<clipPath id="clip0_113_80">
<rect width="24" height="24" fill="white" transform="translate(0.5)"/>
</clipPath>
</defs>
</svg>
