<svg width="25" height="24" viewBox="0 0 25 24" fill="none" xmlns="http://www.w3.org/2000/svg">
<g clip-path="url(#clip0_113_85)">
<g clip-path="url(#clip1_113_85)">
<path d="M4.7 13.525L7.225 11L4.7 8.475L2.175 11L4.7 13.525ZM18.2 13L20.7 9L23.2 13H18.2ZM12.7 12C11.8667 12 11.1583 11.7083 10.575 11.125C9.99166 10.5417 9.7 9.83333 9.7 9C9.7 8.15 9.99166 7.4375 10.575 6.8625C11.1583 6.2875 11.8667 6 12.7 6C13.55 6 14.2625 6.2875 14.8375 6.8625C15.4125 7.4375 15.7 8.15 15.7 9C15.7 9.83333 15.4125 10.5417 14.8375 11.125C14.2625 11.7083 13.55 12 12.7 12ZM0.699997 17V16.425C0.699997 15.6917 1.07083 15.1042 1.8125 14.6625C2.55416 14.2208 3.51666 14 4.7 14C4.91666 14 5.125 14.0042 5.325 14.0125C5.525 14.0208 5.71666 14.0417 5.9 14.075C5.66666 14.4083 5.49166 14.7667 5.375 15.15C5.25833 15.5333 5.2 15.9417 5.2 16.375V18H1.7C1.41666 18 1.17916 17.9042 0.987497 17.7125C0.79583 17.5208 0.699997 17.2833 0.699997 17ZM6.7 17V16.375C6.7 15.2917 7.25416 14.4167 8.3625 13.75C9.47083 13.0833 10.9167 12.75 12.7 12.75C14.5 12.75 15.95 13.0833 17.05 13.75C18.15 14.4167 18.7 15.2917 18.7 16.375V17C18.7 17.2833 18.6042 17.5208 18.4125 17.7125C18.2208 17.9042 17.9833 18 17.7 18H7.7C7.41666 18 7.17916 17.9042 6.9875 17.7125C6.79583 17.5208 6.7 17.2833 6.7 17ZM20.7 14C21.9 14 22.8667 14.2208 23.6 14.6625C24.3333 15.1042 24.7 15.6917 24.7 16.425V17C24.7 17.2833 24.6042 17.5208 24.4125 17.7125C24.2208 17.9042 23.9833 18 23.7 18H20.2V16.375C20.2 15.9417 20.1458 15.5333 20.0375 15.15C19.9292 14.7667 19.7667 14.4083 19.55 14.075C19.7333 14.0417 19.9208 14.0208 20.1125 14.0125C20.3042 14.0042 20.5 14 20.7 14Z" fill="#AAAAAA"/>
</g>
</g>
<defs>
<clipPath id="clip0_113_85">
<rect width="24" height="24" fill="white" transform="translate(0.699997)"/>
</clipPath>
<clipPath id="clip1_113_85">
<rect width="24" height="24" fill="white" transform="translate(0.699997)"/>
</clipPath>
</defs>
</svg>
