<svg width="17" height="16" viewBox="0 0 17 16" fill="none" xmlns="http://www.w3.org/2000/svg">
<path d="M7.43322 9.06665L3.61655 7.64998C3.49433 7.59443 3.39711 7.51665 3.32489 7.41665C3.25266 7.31665 3.21655 7.20554 3.21655 7.08332C3.21655 6.96109 3.24989 6.85276 3.31655 6.75832C3.38322 6.66387 3.47766 6.58887 3.59989 6.53332L12.8166 2.89998C12.9388 2.84443 13.0582 2.83332 13.1749 2.86665C13.2916 2.89998 13.3888 2.95554 13.4666 3.03332C13.5443 3.11109 13.5999 3.20832 13.6332 3.32498C13.6666 3.44165 13.6554 3.56109 13.5999 3.68332L9.96655 12.9C9.911 13.0222 9.836 13.1167 9.74155 13.1833C9.64711 13.25 9.53878 13.2833 9.41655 13.2833C9.29433 13.2833 9.18322 13.2472 9.08322 13.175C8.98322 13.1028 8.90544 13.0055 8.84989 12.8833L7.43322 9.06665Z" fill="#AAAAAA"/>
</svg>
