<svg width="25" height="24" viewBox="0 0 25 24" fill="none" xmlns="http://www.w3.org/2000/svg">
<g clip-path="url(#clip0_113_75)">
<path d="M10.3 6H14.3V4H10.3V6ZM18.3 23C16.9167 23 15.7375 22.5125 14.7625 21.5375C13.7875 20.5625 13.3 19.3833 13.3 18C13.3 16.6167 13.7875 15.4375 14.7625 14.4625C15.7375 13.4875 16.9167 13 18.3 13C19.6833 13 20.8625 13.4875 21.8375 14.4625C22.8125 15.4375 23.3 16.6167 23.3 18C23.3 19.3833 22.8125 20.5625 21.8375 21.5375C20.8625 22.5125 19.6833 23 18.3 23ZM4.3 21C3.75 21 3.27916 20.8042 2.8875 20.4125C2.49583 20.0208 2.3 19.55 2.3 19V8C2.3 7.45 2.49583 6.97917 2.8875 6.5875C3.27916 6.19583 3.75 6 4.3 6H8.3V4C8.3 3.45 8.49583 2.97917 8.8875 2.5875C9.27916 2.19583 9.75 2 10.3 2H14.3C14.85 2 15.3208 2.19583 15.7125 2.5875C16.1042 2.97917 16.3 3.45 16.3 4V6H20.3C20.85 6 21.3208 6.19583 21.7125 6.5875C22.1042 6.97917 22.3 7.45 22.3 8V10.9C22.3 11.2 22.1708 11.425 21.9125 11.575C21.6542 11.725 21.3833 11.7333 21.1 11.6C20.6667 11.4 20.2125 11.25 19.7375 11.15C19.2625 11.05 18.7833 11 18.3 11C16.3667 11 14.7167 11.6833 13.35 13.05C11.9833 14.4167 11.3 16.0667 11.3 18C11.3 18.3 11.3208 18.6042 11.3625 18.9125C11.4042 19.2208 11.4667 19.525 11.55 19.825C11.6333 20.1083 11.5875 20.375 11.4125 20.625C11.2375 20.875 11.0083 21 10.725 21H4.3ZM18.8 17.8V15.5C18.8 15.3667 18.75 15.25 18.65 15.15C18.55 15.05 18.4333 15 18.3 15C18.1667 15 18.05 15.05 17.95 15.15C17.85 15.25 17.8 15.3667 17.8 15.5V17.775C17.8 17.9083 17.825 18.0375 17.875 18.1625C17.925 18.2875 18 18.4 18.1 18.5L19.6 20C19.7 20.1 19.8167 20.15 19.95 20.15C20.0833 20.15 20.2 20.1 20.3 20C20.4 19.9 20.45 19.7833 20.45 19.65C20.45 19.5167 20.4 19.4 20.3 19.3L18.8 17.8Z" fill="#AAAAAA"/>
</g>
<defs>
<clipPath id="clip0_113_75">
<rect width="24" height="24" fill="white" transform="translate(0.299995)"/>
</clipPath>
</defs>
</svg>
