<svg width="16" height="16" viewBox="0 0 16 16" fill="none" xmlns="http://www.w3.org/2000/svg">
<path d="M7.99991 11.2501L5.26657 12.8834C5.14435 12.9501 5.02491 12.9778 4.90824 12.9667C4.79157 12.9556 4.68879 12.9167 4.59991 12.8501C4.51102 12.7834 4.44435 12.6917 4.39991 12.5751C4.35546 12.4584 4.34991 12.3389 4.38324 12.2167L5.09991 9.16672L2.68324 7.11672C2.58324 7.02783 2.52213 6.92506 2.49991 6.80839C2.47768 6.69172 2.48324 6.57784 2.51657 6.46672C2.54991 6.35561 2.61102 6.26395 2.69991 6.19172C2.78879 6.1195 2.89991 6.07783 3.03324 6.06672L6.19991 5.78339L7.44991 2.88339C7.50546 2.76117 7.58324 2.6695 7.68324 2.60839C7.78324 2.54728 7.88879 2.51672 7.99991 2.51672C8.11102 2.51672 8.21657 2.54728 8.31657 2.60839C8.41657 2.6695 8.49435 2.76117 8.54991 2.88339L9.79991 5.80006L12.9666 6.06672C13.0999 6.07783 13.211 6.12228 13.2999 6.20006C13.3888 6.27783 13.4499 6.37228 13.4832 6.48339C13.5166 6.5945 13.5194 6.70561 13.4916 6.81672C13.4638 6.92783 13.3999 7.02783 13.2999 7.11672L10.8999 9.16672L11.6166 12.2167C11.6499 12.3389 11.6444 12.4584 11.5999 12.5751C11.5555 12.6917 11.4888 12.7834 11.3999 12.8501C11.311 12.9167 11.2082 12.9556 11.0916 12.9667C10.9749 12.9778 10.8555 12.9501 10.7332 12.8834L7.99991 11.2501Z" fill="#AAAAAA"/>
</svg>
