<svg width="16" height="16" viewBox="0 0 16 16" fill="none" xmlns="http://www.w3.org/2000/svg">
<path d="M14.0002 5.33334C14.3557 5.33334 14.6668 5.46667 14.9335 5.73334C15.2002 6 15.3335 6.31111 15.3335 6.66667V8C15.3335 8.07778 15.3252 8.16111 15.3085 8.25C15.2918 8.33889 15.2668 8.42222 15.2335 8.5L13.2335 13.2C13.1335 13.4222 12.9668 13.6111 12.7335 13.7667C12.5002 13.9222 12.2557 14 12.0002 14H6.66683C6.30016 14 5.98627 13.8694 5.72516 13.6083C5.46405 13.3472 5.3335 13.0333 5.3335 12.6667V5.88334C5.3335 5.70556 5.36961 5.53611 5.44183 5.375C5.51405 5.21389 5.61127 5.07222 5.7335 4.95L9.35016 1.35C9.51683 1.19445 9.71405 1.1 9.94183 1.06667C10.1696 1.03334 10.3891 1.07222 10.6002 1.18334C10.8113 1.29445 10.9641 1.45 11.0585 1.65C11.1529 1.85 11.1724 2.05556 11.1168 2.26667L10.3668 5.33334H14.0002ZM2.66683 14C2.30016 14 1.98627 13.8694 1.72516 13.6083C1.46405 13.3472 1.3335 13.0333 1.3335 12.6667V6.66667C1.3335 6.3 1.46405 5.98611 1.72516 5.725C1.98627 5.46389 2.30016 5.33334 2.66683 5.33334C3.0335 5.33334 3.34739 5.46389 3.6085 5.725C3.86961 5.98611 4.00016 6.3 4.00016 6.66667V12.6667C4.00016 13.0333 3.86961 13.3472 3.6085 13.6083C3.34739 13.8694 3.0335 14 2.66683 14Z" fill="#AAAAAA"/>
</svg>
