<svg width="28" height="28" viewBox="0 0 28 28" fill="none" xmlns="http://www.w3.org/2000/svg">
<path d="M12.7215 26.7215V25.4429C10.0578 25.1446 7.77245 24.0419 5.8653 22.1347C3.95814 20.2276 2.8554 17.9422 2.55708 15.2785H1.27854C0.916286 15.2785 0.612633 15.156 0.36758 14.911C0.122527 14.6659 0 14.3623 0 14C0 13.6377 0.122527 13.3341 0.36758 13.089C0.612633 12.844 0.916286 12.7215 1.27854 12.7215H2.55708C2.8554 10.0578 3.95814 7.77245 5.8653 5.8653C7.77245 3.95814 10.0578 2.8554 12.7215 2.55708V1.27854C12.7215 0.916286 12.844 0.612633 13.089 0.36758C13.3341 0.122527 13.6377 0 14 0C14.3623 0 14.6659 0.122527 14.911 0.36758C15.156 0.612633 15.2785 0.916286 15.2785 1.27854V2.55708C17.9422 2.8554 20.2276 3.95814 22.1347 5.8653C24.0419 7.77245 25.1446 10.0578 25.4429 12.7215H26.7215C27.0837 12.7215 27.3874 12.844 27.6324 13.089C27.8775 13.3341 28 13.6377 28 14C28 14.3623 27.8775 14.6659 27.6324 14.911C27.3874 15.156 27.0837 15.2785 26.7215 15.2785H25.4429C25.1446 17.9422 24.0419 20.2276 22.1347 22.1347C20.2276 24.0419 17.9422 25.1446 15.2785 25.4429V26.7215C15.2785 27.0837 15.156 27.3874 14.911 27.6324C14.6659 27.8775 14.3623 28 14 28C13.6377 28 13.3341 27.8775 13.089 27.6324C12.844 27.3874 12.7215 27.0837 12.7215 26.7215ZM14 22.9498C16.4718 22.9498 18.5814 22.0761 20.3288 20.3288C22.0761 18.5814 22.9498 16.4718 22.9498 14C22.9498 11.5282 22.0761 9.41857 20.3288 7.67123C18.5814 5.9239 16.4718 5.05023 14 5.05023C11.5282 5.05023 9.41857 5.9239 7.67123 7.67123C5.9239 9.41857 5.05023 11.5282 5.05023 14C5.05023 16.4718 5.9239 18.5814 7.67123 20.3288C9.41857 22.0761 11.5282 22.9498 14 22.9498ZM14 19.1142C12.5936 19.1142 11.3897 18.6134 10.3881 17.6119C9.38661 16.6103 8.88585 15.4064 8.88585 14C8.88585 12.5936 9.38661 11.3897 10.3881 10.3881C11.3897 9.38661 12.5936 8.88585 14 8.88585C15.4064 8.88585 16.6103 9.38661 17.6119 10.3881C18.6134 11.3897 19.1142 12.5936 19.1142 14C19.1142 15.4064 18.6134 16.6103 17.6119 17.6119C16.6103 18.6134 15.4064 19.1142 14 19.1142Z" fill="#AAAAAA"/>
</svg>
